<svg width="336" height="363" viewBox="0 0 336 363" fill="black" xmlns="http://www.w3.org/2000/svg">
<path d="M239.789 312.124L239.76 312.104L239.57 311.98C239.403 311.87 239.157 311.709 238.838 311.5C238.202 311.082 237.279 310.475 236.132 309.718C233.837 308.205 230.644 306.092 227.051 303.697C219.87 298.909 211.073 292.977 204.657 288.432C197.902 283.648 194.824 277.361 194.824 269.462V269.405L194.827 269.349L199.935 178.777L200.101 175.838L202.772 177.074L261.388 204.198L262.548 204.735V206.014V225.231C262.548 227.698 264.539 229.689 267.006 229.689C269.473 229.689 271.463 227.698 271.463 225.231V211.996V208.867L274.303 210.18L310.008 226.689L311.168 227.226V228.504V244.228C311.168 246.682 313.156 248.675 315.626 248.675C318.086 248.675 320.083 246.68 320.083 244.228V234.486V231.357L322.923 232.671L352.985 246.581C352.989 246.583 352.993 246.585 352.998 246.587C354.613 247.301 356.479 247.153 357.949 246.199C359.441 245.227 360.333 243.59 360.333 241.817V224.081V224.08C360.333 222.45 359.563 220.907 358.237 219.91C358.237 219.909 358.236 219.908 358.235 219.908L320.887 192.001L320.084 191.401V190.399V159.902C320.084 157.437 318.085 155.445 315.626 155.445C313.159 155.445 311.169 157.435 311.169 159.902V180.746V184.737L307.972 182.348L272.267 155.666L271.464 155.066V154.064V133.32C271.464 130.857 269.467 128.851 267.007 128.851C264.546 128.851 262.549 130.856 262.549 133.32V144.41V148.401L259.352 146.013L205.601 105.852L204.798 105.252V104.249H206.798C204.798 104.249 204.798 104.249 204.798 104.249V104.247V104.244V104.24V104.235V104.228V104.221V104.212V104.202V104.191V104.179V104.166V104.152V104.136V104.12V104.102V104.083V104.063V104.042V104.02V103.997V103.973V103.947V103.921V103.893V103.864V103.835V103.804V103.772V103.739V103.705V103.67V103.634V103.597V103.559V103.52V103.48V103.439V103.396V103.353V103.309V103.264V103.217V103.17V103.122V103.073V103.022V102.971V102.919V102.866V102.812V102.756V102.7V102.643V102.585V102.526V102.466V102.406V102.344V102.281V102.217V102.153V102.087V102.021V101.953V101.885V101.816V101.746V101.675V101.603V101.53V101.456V101.382V101.306V101.23V101.153V101.075V100.996V100.916V100.835V100.754V100.671V100.588V100.504V100.419V100.333V100.247V100.16V100.071V99.9823V99.8925V99.8018V99.7104V99.6181V99.5251V99.4313V99.3366V99.2412V99.145V99.048V98.9503V98.8518V98.7525V98.6524V98.5516V98.4501V98.3478V98.2447V98.1409V98.0364V97.9311V97.8251V97.7184V97.6109V97.5028V97.3939V97.2843V97.174V97.063V96.9513V96.839V96.7259V96.6121V96.4977V96.3826V96.2668V96.1503V96.0332V95.9154V95.7969V95.6778V95.5581V95.4377V95.3166V95.195V95.0727V94.9497V94.8261V94.702V94.5771V94.4517V94.3257V94.1991V94.0718V93.944V93.8156V93.6865V93.5569V93.4268V93.296V93.1646V93.0327V92.9003V92.7672V92.6336V92.4995V92.3648V92.2296V92.0938V91.9575V91.8206V91.6832V91.5453V91.4069V91.2679V91.1284V90.9885V90.848V90.707V90.5655V90.4236V90.2811V90.1381V89.9947V89.8508V89.7064V89.5616V89.4162V89.2705V89.1242V88.9775V88.8304V88.6828V88.5348V88.3863V88.2374V88.0881V87.9383V87.7881V87.6375V87.4865V87.3351V87.1833V87.0311V86.8784V86.7254V86.572V86.4182V86.264V86.1095V85.9545V85.7992V85.6436V85.4875V85.3312V85.1744V85.0173V84.8599V84.7021V84.544V84.3856V84.2268V84.0677V83.9082V83.7485V83.5884V83.4281V83.2674V83.1064V82.9452V82.7836V82.6217V82.4596V82.2972V82.1345V81.9715V81.8082V81.6447V81.4809V81.3169V81.1526V80.9881V80.8233V80.6583V80.493V80.3275V80.1618V79.9958V79.8297V79.6633V79.4967V79.3299V79.1628V78.9956V78.8282V78.6606V78.4928V78.3248V78.1566V77.9883V77.8197V77.651V77.4822V77.3132V77.144V76.9746V76.8052V76.6355V76.4658V76.2958V76.1258V75.9556V75.7853V75.6149V75.4444V75.2737V75.1029V74.9321V74.7611V74.59V74.4189V74.2476V74.0763V73.9048V73.7333V73.5618V73.3901V73.2184V73.0466V72.8748V72.7029V72.531V72.359V72.187V72.0149V71.8428V71.6707V71.4986V71.3264V71.1542V70.982V70.8098V70.6376V70.4653V70.2931V70.1209V69.9487V69.7765V69.6043V69.4322V69.2601V69.088V68.9159V68.7439V68.5719V68.4V68.2281V68.0563V67.8845V67.7128V67.5411V67.3696V67.1981V67.0266V66.8553V66.684V66.5129V66.3418V66.1708V66V65.8292V65.6585V65.488V65.3176V65.1473V64.9771V64.807V64.6371V64.4674V64.2977V64.1282V63.9589V63.7897V63.6207V63.4518V63.2831V63.1146V62.9463V62.7781V62.6101V62.4423V62.2747V62.1072V61.94V61.773V61.6062V61.4396V61.2732V61.107V60.9411V60.7753V60.6098V60.4446V60.2795V60.1148V59.9502V59.7859V59.6219V59.4581V59.2946V59.1314V58.9684V58.8057V58.6432V58.4811V58.3192V58.1577V57.9964V57.8354V57.6747V57.5144V57.3543V57.1946V57.0351V56.876V56.7172V56.5588V56.4007V56.2429V56.0855V55.9284V55.7716V55.6152V55.4592V55.3035V55.1482V54.9933V54.8387V54.6846V54.5308V54.3774V54.2243V54.0717V53.9195V53.7676V53.6162V53.4652V53.3146V53.1644V53.0147V52.8653V52.7164V52.568V52.4199V52.2723V52.1252V51.9785V51.8322V51.6865V51.5411V51.3963V51.2519V51.108V50.9645V50.8216V50.6791V50.5371V50.3957V50.2547V50.1142V49.9742V49.8347V49.6958V49.5574V49.4194V49.282V49.1452V49.0089V48.8731V48.7378V48.6031V48.469V48.3354V48.2023V48.0699V47.9379V47.8066V47.6758V47.5456V47.416V47.287V47.1586V47.0307V46.9035V46.7769V46.6508V46.5254V46.4006V46.2764V46.1528V46.0299V45.9076V45.7859V45.6648V45.5444V45.4247V45.3056V45.1871V45.0693V44.9522V44.8357V44.7199V44.6048V44.4903V44.3766V44.2635V44.1511V44.0394V43.9284V43.8181V43.7085V43.5996V43.4915V43.384V43.2773V43.1713V43.066V42.9615V42.8577V42.7546V42.6523V42.5507V42.4499V42.3499V42.2506V42.1521V42.0543V41.9573V41.8611V41.7657V41.6711V41.5772V41.4842V41.3919V41.3005V41.2098V41.12V41.0309V40.9427V40.8553V40.7688V40.6831V40.5982V40.5141V40.4309V40.3485V40.267V40.1863V40.1065V40.0276V39.9495V39.8723C204.798 33.8408 201.439 24.2414 196.537 16.0492C194.107 11.988 191.373 8.401 188.619 5.85613C185.814 3.26397 183.261 2 181.167 2C179.072 2 176.519 3.26402 173.714 5.85632C170.961 8.40131 168.226 11.9885 165.796 16.0499C160.895 24.2424 157.535 33.8422 157.535 39.8737V39.9509V40.029V40.1079V40.1877V40.2684V40.3499V40.4323V40.5155V40.5996V40.6845V40.7702V40.8568V40.9441V41.0324V41.1214V41.2112V41.3019V41.3933V41.4856V41.5786V41.6725V41.7671V41.8625V41.9587V42.0557V42.1535V42.252V42.3513V42.4514V42.5522V42.6537V42.756V42.8591V42.9629V43.0674V43.1727V43.2787V43.3854V43.4929V43.6011V43.7099V43.8195V43.9298V44.0408V44.1525V44.2649V44.378V44.4918V44.6062V44.7213V44.8371V44.9536V45.0707V45.1885V45.307V45.4261V45.5458V45.6663V45.7873V45.909V46.0313V46.1542V46.2778V46.402V46.5268V46.6522V46.7783V46.9049V47.0322V47.16V47.2884V47.4174V47.5471V47.6772V47.808V47.9394V48.0713V48.2038V48.3368V48.4704V48.6045V48.7392V48.8745V49.0103V49.1466V49.2835V49.4209V49.5588V49.6972V49.8362V49.9756V50.1156V50.2561V50.3971V50.5386V50.6805V50.823V50.966V51.1094V51.2533V51.3977V51.5426V51.6879V51.8337V51.9799V52.1266V52.2737V52.4213V52.5694V52.7178V52.8667V53.0161V53.1658V53.316V53.4666V53.6176V53.7691V53.9209V54.0731V54.2257V54.3788V54.5322V54.686V54.8402V54.9947V55.1497V55.305V55.4606V55.6167V55.773V55.9298V56.0869V56.2443V56.4021V56.5602V56.7187V56.8774V57.0365V57.196V57.3557V57.5158V57.6762V57.8368V57.9978V58.1591V58.3207V58.4825V58.6447V58.8071V58.9698V59.1328V59.296V59.4595V59.6233V59.7873V59.9516V60.1162V60.281V60.446V60.6112V60.7767V60.9425V61.1084V61.2746V61.441V61.6076V61.7744V61.9414V62.1087V62.2761V62.4437V62.6115V62.7795V62.9477V63.116V63.2846V63.4533V63.6221V63.7911V63.9603V64.1297V64.2991V64.4688V64.6385V64.8085V64.9785V65.1487V65.319V65.4894V65.66V65.8306V66.0014V66.1722V66.3432V66.5143V66.6854V66.8567V67.028V67.1995V67.371V67.5425V67.7142V67.8859V68.0577V68.2295V68.4014V68.5733V68.7453V68.9173V69.0894V69.2615V69.4336V69.6058V69.7779V69.9501V70.1223V70.2945V70.4668V70.639V70.8112V70.9834V71.1556V71.3278V71.5V71.6721V71.8443V72.0163V72.1884V72.3604V72.5324V72.7043V72.8762V73.0481V73.2198V73.3915V73.5632V73.7348V73.9063V74.0777V74.249V74.4203V74.5914V74.7625V74.9335V75.1044V75.2751V75.4458V75.6163V75.7867V75.957V76.1272V76.2973V76.4672V76.6369V76.8066V76.9761V77.1454V77.3146V77.4836V77.6525V77.8212V77.9897V78.158V78.3262V78.4942V78.662V78.8296V78.997V79.1643V79.3313V79.4981V79.6647V79.8311V79.9973V80.1632V80.3289V80.4944V80.6597V80.8247V80.9895V81.1541V81.3183V81.4824V81.6461V81.8097V81.9729V82.1359V82.2986V82.461V82.6232V82.785V82.9466V83.1078V83.2688V83.4295V83.5899V83.7499V83.9097V84.0691V84.2282V84.387V84.5454V84.7035V84.8613V85.0188V85.1758V85.3326V85.489V85.645V85.8007V85.956V86.1109V86.2654V86.4196V86.5734V86.7268V86.8798V87.0325V87.1847V87.3365V87.4879V87.639V87.7896V87.9397V88.0895V88.2388V88.3877V88.5362V88.6842V88.8318V88.979V89.1256V89.2719V89.4177V89.563V89.7078V89.8522V89.9961V90.1396V90.2825V90.425V90.567V90.7084V90.8494V90.9899V91.1299V91.2693V91.4083V91.5467V91.6846V91.822V91.9589V92.0952V92.231V92.3662V92.5009V92.6351V92.7687V92.9017V93.0342V93.1661V93.2974V93.4282V93.5584V93.688V93.817V93.9454V94.0732V94.2005V94.3271V94.4532V94.5786V94.7034V94.8276V94.9511V95.0741V95.1964V95.3181V95.4391V95.5595V95.6793V95.7984V95.9168V96.0346V96.1517V96.2682V96.384V96.4991V96.6135V96.7273V96.8404V96.9528V97.0645V97.1755V97.2857V97.3953V97.5042V97.6124V97.7198V97.8265V97.9325V98.0378V98.1423V98.2461V98.3492V98.4515V98.553V98.6539V98.7539V98.8532V98.9517V99.0495V99.1464V99.2426V99.3381V99.4327V99.5265V99.6196V99.7118V99.8033V99.8939V99.9837V100.073V100.161V100.248V100.335V100.421V100.506V100.59V100.673V100.755V100.837V100.917V100.997V101.076V101.154V101.231V101.308V101.383V101.458V101.531V101.604V101.676V101.747V101.817V101.886V101.955V102.022V102.089V102.154V102.219V102.282V102.345V102.407V102.468V102.528V102.587V102.645V102.702V102.758V102.813V102.867V102.92V102.973V103.024V103.074V103.123V103.172V103.219V103.265V103.31V103.355V103.398V103.44V103.481V103.521V103.561V103.599V103.636V103.672V103.707V103.741V103.774V103.805V103.836V103.866V103.895V103.922V103.949V103.974V103.998V104.021V104.044V104.065V104.085V104.103V104.121V104.138V104.153V104.168V104.181V104.193V104.204V104.214V104.222V104.23V104.236V104.242V104.246V104.249V104.25C157.535 104.251 157.535 104.251 155.535 104.251H157.535V105.253L156.732 105.853L102.982 146.014L99.7846 148.403V144.412V133.321C99.7846 130.858 97.7873 128.852 95.327 128.852C92.8666 128.852 90.8694 130.858 90.8694 133.321V154.065V155.068L90.0663 155.668L54.3616 182.339L51.1647 184.727V180.736V159.904C51.1647 157.439 49.1651 155.446 46.7071 155.446C44.249 155.446 42.2495 157.439 42.2495 159.904V190.401V191.403L41.4465 192.003L4.09864 219.908C4.09789 219.908 4.09715 219.909 4.0964 219.909C2.77103 220.906 2 222.45 2 224.081V241.817C2 243.591 2.89226 245.229 4.3858 246.201L4.38751 246.202C5.84541 247.153 7.71919 247.301 9.32309 246.587C9.32669 246.586 9.33028 246.584 9.33388 246.583L39.4098 232.671L42.2495 231.358V234.486V244.228C42.2495 246.68 44.2467 248.675 46.7071 248.675C49.1674 248.675 51.1647 246.68 51.1647 244.228V228.504V227.226L52.3253 226.689L88.03 210.18L90.8694 208.867V211.996V225.231C90.8694 227.698 92.8599 229.689 95.327 229.689C97.7941 229.689 99.7846 227.698 99.7846 225.231V206.014V204.735L100.945 204.198L159.561 177.074L162.232 175.838L162.397 178.777L167.506 269.349L167.509 269.405V269.462C167.509 277.361 164.43 283.648 157.664 288.432C157.664 288.432 157.663 288.432 157.663 288.433L156.508 286.8C143.725 295.856 121.411 310.474 121.411 310.474L239.789 312.124ZM239.789 312.124C241.911 313.656 242.816 316.397 242.024 318.897C241.22 321.378 238.962 323.06 236.384 323.124L190.978 315.655L188.653 315.273V317.629V325.513C188.653 329.649 185.303 333 181.166 333C177.03 333 173.679 329.649 173.679 325.513V317.629V315.273L171.354 315.655L125.948 323.124C123.366 323.06 121.103 321.374 120.31 318.902C119.515 316.4 120.42 313.657 122.543 312.124L239.789 312.124ZM163.974 38.7343V40.7343H165.974H196.36H198.36V38.7343C198.36 29.246 190.651 21.5524 181.167 21.5524C171.67 21.5524 163.974 29.247 163.974 38.7343Z" stroke="#090E50" stroke-width="4"/>
</svg>
