<svg width="336" height="363" viewBox="0 0 336 363" fill="white" xmlns="http://www.w3.org/2000/svg">
<path d="M16.7642 120.643C19.2664 119.848 22.0094 120.753 23.5431 122.877L48.8668 156.842L47.2336 157.996C47.234 157.997 47.2344 157.997 47.2348 157.998C52.0186 164.764 58.3053 167.843 66.205 167.843L66.2613 167.843L66.3176 167.84L156.89 162.731L159.828 162.565L158.592 159.894L131.468 101.278L130.931 100.118L129.653 100.118L110.435 100.118C107.968 100.118 105.978 98.1277 105.978 95.6606C105.978 93.1935 107.968 91.203 110.435 91.203L123.671 91.203L126.799 91.203L125.486 88.3636L108.977 52.6589L108.441 51.4982L107.162 51.4982L91.4381 51.4982C88.9869 51.4982 86.9918 49.501 86.9918 47.0406C86.9918 44.5803 88.9869 42.583 91.4381 42.583L101.18 42.583L104.309 42.583L102.995 39.7434L89.084 9.66745C89.0825 9.66419 89.0811 9.66094 89.0797 9.65768C88.3656 8.05356 88.5135 6.1793 89.4645 4.72108L89.4656 4.71938C90.4375 3.22584 92.0757 2.33358 93.8492 2.33358L111.586 2.33358C113.217 2.33358 114.761 3.10486 115.758 4.43064C115.758 4.43117 115.758 4.43169 115.759 4.43222L143.664 41.7801L144.264 42.583L145.266 42.583L175.763 42.583C178.228 42.583 180.22 44.5826 180.22 47.0406C180.22 49.4987 178.228 51.4982 175.763 51.4982L154.93 51.4982L150.94 51.4982L153.328 54.6952L179.999 90.3999L180.599 91.203L181.601 91.203L202.345 91.203C204.809 91.203 206.814 93.2002 206.814 95.6606C206.814 98.1208 204.808 100.118 202.345 100.118L191.255 100.118L187.264 100.118L189.652 103.315L229.813 157.066L230.413 157.869L231.416 157.869L231.416 155.869C231.416 157.869 231.416 157.869 231.416 157.869L231.418 157.869L231.421 157.869L231.425 157.869L231.43 157.869L231.437 157.869L231.444 157.869L231.453 157.869L231.463 157.869L231.474 157.869L231.486 157.869L231.499 157.869L231.513 157.869L231.529 157.869L231.545 157.869L231.563 157.869L231.582 157.869L231.602 157.869L231.623 157.869L231.645 157.869L231.668 157.869L231.693 157.869L231.718 157.869L231.744 157.869L231.772 157.869L231.801 157.869L231.83 157.869L231.861 157.869L231.893 157.869L231.926 157.869L231.96 157.869L231.995 157.869L232.031 157.869L232.068 157.869L232.106 157.869L232.145 157.869L232.185 157.869L232.226 157.869L232.269 157.869L232.312 157.869L232.356 157.869L232.401 157.869L232.448 157.869L232.495 157.869L232.543 157.869L232.592 157.869L232.643 157.869L232.694 157.869L232.746 157.869L232.799 157.869L232.853 157.869L232.909 157.869L232.965 157.869L233.022 157.869L233.08 157.869L233.139 157.869L233.199 157.869L233.26 157.869L233.321 157.869L233.384 157.869L233.448 157.869L233.512 157.869L233.578 157.869L233.644 157.869L233.712 157.869L233.78 157.869L233.849 157.869L233.919 157.869L233.99 157.869L234.062 157.869L234.135 157.869L234.209 157.869L234.283 157.869L234.359 157.869L234.435 157.869L234.512 157.869L234.59 157.869L234.669 157.869L234.749 157.869L234.83 157.869L234.911 157.869L234.994 157.869L235.077 157.869L235.161 157.869L235.246 157.869L235.332 157.869L235.418 157.869L235.506 157.869L235.594 157.869L235.683 157.869L235.773 157.869L235.863 157.869L235.955 157.869L236.047 157.869L236.14 157.869L236.234 157.869L236.328 157.869L236.424 157.869L236.52 157.869L236.617 157.869L236.715 157.869L236.813 157.869L236.913 157.869L237.013 157.869L237.113 157.869L237.215 157.869L237.317 157.869L237.42 157.869L237.524 157.869L237.629 157.869L237.734 157.869L237.84 157.869L237.947 157.869L238.054 157.869L238.162 157.869L238.271 157.869L238.381 157.869L238.491 157.869L238.602 157.869L238.714 157.869L238.826 157.869L238.939 157.869L239.053 157.869L239.167 157.869L239.283 157.869L239.398 157.869L239.515 157.869L239.632 157.869L239.75 157.869L239.868 157.869L239.987 157.869L240.107 157.869L240.227 157.869L240.348 157.869L240.47 157.869L240.592 157.869L240.715 157.869L240.839 157.869L240.963 157.869L241.088 157.869L241.213 157.869L241.339 157.869L241.466 157.869L241.593 157.869L241.721 157.869L241.85 157.869L241.979 157.869L242.108 157.869L242.238 157.869L242.369 157.869L242.5 157.869L242.632 157.869L242.765 157.869L242.898 157.869L243.031 157.869L243.166 157.869L243.3 157.869L243.436 157.869L243.571 157.869L243.708 157.869L243.844 157.869L243.982 157.869L244.12 157.869L244.258 157.869L244.397 157.869L244.537 157.869L244.677 157.869L244.817 157.869L244.958 157.869L245.1 157.869L245.242 157.869L245.384 157.869L245.527 157.869L245.67 157.869L245.814 157.869L245.959 157.869L246.104 157.869L246.249 157.869L246.395 157.869L246.541 157.869L246.688 157.869L246.835 157.869L246.982 157.869L247.13 157.869L247.279 157.869L247.428 157.869L247.577 157.869L247.727 157.869L247.877 157.869L248.028 157.869L248.179 157.869L248.33 157.869L248.482 157.869L248.634 157.869L248.787 157.869L248.94 157.869L249.093 157.869L249.247 157.869L249.401 157.869L249.556 157.869L249.711 157.869L249.866 157.869L250.022 157.869L250.178 157.869L250.334 157.869L250.491 157.869L250.648 157.869L250.805 157.869L250.963 157.869L251.121 157.869L251.28 157.869L251.438 157.869L251.597 157.869L251.757 157.869L251.917 157.869L252.077 157.869L252.237 157.869L252.398 157.869L252.559 157.869L252.72 157.869L252.881 157.869L253.043 157.869L253.205 157.869L253.368 157.869L253.531 157.869L253.694 157.869L253.857 157.869L254.02 157.869L254.184 157.869L254.348 157.869L254.512 157.869L254.677 157.869L254.842 157.869L255.007 157.869L255.172 157.869L255.338 157.869L255.503 157.869L255.669 157.869L255.835 157.869L256.002 157.869L256.168 157.869L256.335 157.869L256.502 157.869L256.669 157.869L256.837 157.869L257.004 157.869L257.172 157.869L257.34 157.869L257.508 157.869L257.677 157.869L257.845 157.869L258.014 157.869L258.183 157.869L258.352 157.869L258.521 157.869L258.69 157.869L258.86 157.869L259.03 157.869L259.199 157.869L259.369 157.869L259.539 157.869L259.709 157.869L259.88 157.869L260.05 157.869L260.221 157.869L260.391 157.869L260.562 157.869L260.733 157.869L260.904 157.869L261.075 157.869L261.246 157.869L261.417 157.869L261.589 157.869L261.76 157.869L261.932 157.869L262.103 157.869L262.275 157.869L262.447 157.869L262.618 157.869L262.79 157.869L262.962 157.869L263.134 157.869L263.306 157.869L263.478 157.869L263.65 157.869L263.822 157.869L263.994 157.869L264.167 157.869L264.339 157.869L264.511 157.869L264.683 157.869L264.855 157.869L265.028 157.869L265.2 157.869L265.372 157.869L265.544 157.869L265.716 157.869L265.889 157.869L266.061 157.869L266.233 157.869L266.405 157.869L266.577 157.869L266.749 157.869L266.921 157.869L267.093 157.869L267.265 157.869L267.437 157.869L267.609 157.869L267.781 157.869L267.952 157.869L268.124 157.869L268.296 157.869L268.467 157.869L268.638 157.869L268.81 157.869L268.981 157.869L269.152 157.869L269.323 157.869L269.494 157.869L269.665 157.869L269.836 157.869L270.007 157.869L270.177 157.869L270.348 157.869L270.518 157.869L270.688 157.869L270.858 157.869L271.028 157.869L271.198 157.869L271.367 157.869L271.537 157.869L271.706 157.869L271.875 157.869L272.044 157.869L272.213 157.869L272.382 157.869L272.55 157.869L272.719 157.869L272.887 157.869L273.055 157.869L273.223 157.869L273.39 157.869L273.558 157.869L273.725 157.869L273.892 157.869L274.059 157.869L274.226 157.869L274.392 157.869L274.558 157.869L274.724 157.869L274.89 157.869L275.055 157.869L275.221 157.869L275.386 157.869L275.55 157.869L275.715 157.869L275.879 157.869L276.043 157.869L276.207 157.869L276.37 157.869L276.534 157.869L276.697 157.869L276.859 157.869L277.022 157.869L277.184 157.869L277.346 157.869L277.507 157.869L277.669 157.869L277.83 157.869L277.99 157.869L278.151 157.869L278.311 157.869L278.471 157.869L278.63 157.869L278.789 157.869L278.948 157.869L279.106 157.869L279.264 157.869L279.422 157.869L279.58 157.869L279.737 157.869L279.893 157.869L280.05 157.869L280.206 157.869L280.362 157.869L280.517 157.869L280.672 157.869L280.826 157.869L280.981 157.869L281.134 157.869L281.288 157.869L281.441 157.869L281.593 157.869L281.746 157.869L281.897 157.869L282.049 157.869L282.2 157.869L282.35 157.869L282.501 157.869L282.65 157.869L282.8 157.869L282.949 157.869L283.097 157.869L283.245 157.869L283.393 157.869L283.54 157.869L283.687 157.869L283.833 157.869L283.979 157.869L284.124 157.869L284.269 157.869L284.413 157.869L284.557 157.869L284.701 157.869L284.843 157.869L284.986 157.869L285.128 157.869L285.269 157.869L285.41 157.869L285.551 157.869L285.691 157.869L285.83 157.869L285.969 157.869L286.108 157.869L286.246 157.869L286.383 157.869L286.52 157.869L286.656 157.869L286.792 157.869L286.927 157.869L287.062 157.869L287.196 157.869L287.33 157.869L287.463 157.869L287.595 157.869L287.727 157.869L287.858 157.869L287.989 157.869L288.119 157.869L288.249 157.869L288.378 157.869L288.507 157.869L288.634 157.869L288.762 157.869L288.888 157.869L289.014 157.869L289.14 157.869L289.264 157.869L289.389 157.869L289.512 157.869L289.635 157.869L289.758 157.869L289.879 157.869L290 157.869L290.121 157.869L290.24 157.869L290.36 157.869L290.478 157.869L290.596 157.869L290.713 157.869L290.829 157.869L290.945 157.869L291.06 157.869L291.175 157.869L291.289 157.869L291.402 157.869L291.514 157.869L291.626 157.869L291.737 157.869L291.847 157.869L291.957 157.869L292.065 157.869L292.174 157.869L292.281 157.869L292.388 157.869L292.494 157.869L292.599 157.869L292.704 157.869L292.807 157.869L292.91 157.869L293.013 157.869L293.114 157.869L293.215 157.869L293.315 157.869L293.414 157.869L293.513 157.869L293.611 157.869L293.708 157.869L293.804 157.869L293.899 157.869L293.994 157.869L294.088 157.869L294.181 157.869L294.273 157.869L294.365 157.869L294.455 157.869L294.545 157.869L294.634 157.869L294.722 157.869L294.81 157.869L294.896 157.869L294.982 157.869L295.067 157.869L295.151 157.869L295.234 157.869L295.317 157.869L295.398 157.869L295.479 157.869L295.559 157.869L295.638 157.869L295.716 157.869L295.793 157.869C301.824 157.869 311.424 161.228 319.617 166.13C323.678 168.56 327.265 171.295 329.81 174.048C332.402 176.853 333.666 179.406 333.666 181.5C333.666 183.595 332.403 186.148 329.81 188.953C327.265 191.706 323.678 194.441 319.617 196.871C311.425 201.773 301.826 205.132 295.794 205.132L295.717 205.132L295.639 205.132L295.56 205.132L295.48 205.132L295.4 205.132L295.318 205.132L295.236 205.132L295.152 205.132L295.068 205.132L294.983 205.132L294.898 205.132L294.811 205.132L294.724 205.132L294.636 205.132L294.547 205.132L294.457 205.132L294.366 205.132L294.275 205.132L294.182 205.132L294.089 205.132L293.995 205.132L293.901 205.132L293.805 205.132L293.709 205.132L293.612 205.132L293.514 205.132L293.416 205.132L293.317 205.132L293.217 205.132L293.116 205.132L293.014 205.132L292.912 205.132L292.809 205.132L292.705 205.132L292.6 205.132L292.495 205.132L292.389 205.132L292.282 205.132L292.175 205.132L292.067 205.132L291.958 205.132L291.848 205.132L291.738 205.132L291.627 205.132L291.515 205.132L291.403 205.132L291.29 205.132L291.176 205.132L291.062 205.132L290.947 205.132L290.831 205.132L290.714 205.132L290.597 205.132L290.479 205.132L290.361 205.132L290.242 205.132L290.122 205.132L290.002 205.132L289.881 205.132L289.759 205.132L289.637 205.132L289.514 205.132L289.39 205.132L289.266 205.132L289.141 205.132L289.016 205.132L288.89 205.132L288.763 205.132L288.636 205.132L288.508 205.132L288.379 205.132L288.25 205.132L288.121 205.132L287.991 205.132L287.86 205.132L287.729 205.132L287.597 205.132L287.464 205.132L287.331 205.132L287.198 205.132L287.063 205.132L286.929 205.132L286.793 205.132L286.658 205.132L286.521 205.132L286.384 205.132L286.247 205.132L286.109 205.132L285.971 205.132L285.832 205.132L285.692 205.132L285.552 205.132L285.412 205.132L285.271 205.132L285.129 205.132L284.987 205.132L284.845 205.132L284.702 205.132L284.559 205.132L284.415 205.132L284.27 205.132L284.125 205.132L283.98 205.132L283.834 205.132L283.688 205.132L283.541 205.132L283.394 205.132L283.247 205.132L283.099 205.132L282.95 205.132L282.801 205.132L282.652 205.132L282.502 205.132L282.352 205.132L282.201 205.132L282.05 205.132L281.899 205.132L281.747 205.132L281.595 205.132L281.442 205.132L281.289 205.132L281.136 205.132L280.982 205.132L280.828 205.132L280.673 205.132L280.518 205.132L280.363 205.132L280.207 205.132L280.051 205.132L279.895 205.132L279.738 205.132L279.581 205.132L279.424 205.132L279.266 205.132L279.108 205.132L278.949 205.132L278.79 205.132L278.631 205.132L278.472 205.132L278.312 205.132L278.152 205.132L277.992 205.132L277.831 205.132L277.67 205.132L277.509 205.132L277.347 205.132L277.185 205.132L277.023 205.132L276.861 205.132L276.698 205.132L276.535 205.132L276.372 205.132L276.208 205.132L276.045 205.132L275.881 205.132L275.716 205.132L275.552 205.132L275.387 205.132L275.222 205.132L275.057 205.132L274.891 205.132L274.725 205.132L274.559 205.132L274.393 205.132L274.227 205.132L274.06 205.132L273.893 205.132L273.726 205.132L273.559 205.132L273.392 205.132L273.224 205.132L273.056 205.132L272.888 205.132L272.72 205.132L272.552 205.132L272.383 205.132L272.215 205.132L272.046 205.132L271.877 205.132L271.708 205.132L271.538 205.132L271.369 205.132L271.199 205.132L271.029 205.132L270.859 205.132L270.689 205.132L270.519 205.132L270.349 205.132L270.179 205.132L270.008 205.132L269.837 205.132L269.667 205.132L269.496 205.132L269.325 205.132L269.154 205.132L268.982 205.132L268.811 205.132L268.64 205.132L268.468 205.132L268.297 205.132L268.125 205.132L267.954 205.132L267.782 205.132L267.61 205.132L267.438 205.132L267.267 205.132L267.095 205.132L266.923 205.132L266.751 205.132L266.579 205.132L266.406 205.132L266.234 205.132L266.062 205.132L265.89 205.132L265.718 205.132L265.546 205.132L265.373 205.132L265.201 205.132L265.029 205.132L264.857 205.132L264.685 205.132L264.512 205.132L264.34 205.132L264.168 205.132L263.996 205.132L263.824 205.132L263.652 205.132L263.48 205.132L263.307 205.132L263.136 205.132L262.964 205.132L262.792 205.132L262.62 205.132L262.448 205.132L262.276 205.132L262.105 205.132L261.933 205.132L261.762 205.132L261.59 205.132L261.419 205.132L261.248 205.132L261.076 205.132L260.905 205.132L260.734 205.132L260.564 205.132L260.393 205.132L260.222 205.132L260.052 205.132L259.881 205.132L259.711 205.132L259.541 205.132L259.371 205.132L259.201 205.132L259.031 205.132L258.861 205.132L258.692 205.132L258.523 205.132L258.353 205.132L258.184 205.132L258.015 205.132L257.847 205.132L257.678 205.132L257.51 205.132L257.342 205.132L257.174 205.132L257.006 205.132L256.838 205.132L256.671 205.132L256.504 205.132L256.337 205.132L256.17 205.132L256.003 205.132L255.837 205.132L255.671 205.132L255.505 205.132L255.339 205.132L255.173 205.132L255.008 205.132L254.843 205.132L254.678 205.132L254.514 205.132L254.35 205.132L254.186 205.132L254.022 205.132L253.858 205.132L253.695 205.132L253.532 205.132L253.369 205.132L253.207 205.132L253.045 205.132L252.883 205.132L252.721 205.132L252.56 205.132L252.399 205.132L252.238 205.132L252.078 205.132L251.918 205.132L251.758 205.132L251.599 205.132L251.44 205.132L251.281 205.132L251.122 205.132L250.964 205.132L250.807 205.132L250.649 205.132L250.492 205.132L250.335 205.132L250.179 205.132L250.023 205.132L249.867 205.132L249.712 205.132L249.557 205.132L249.402 205.132L249.248 205.132L249.095 205.132L248.941 205.132L248.788 205.132L248.635 205.132L248.483 205.132L248.331 205.132L248.18 205.132L248.029 205.132L247.878 205.132L247.728 205.132L247.578 205.132L247.429 205.132L247.28 205.132L247.132 205.132L246.984 205.132L246.836 205.132L246.689 205.132L246.542 205.132L246.396 205.132L246.25 205.132L246.105 205.132L245.96 205.132L245.816 205.132L245.672 205.132L245.528 205.132L245.385 205.132L245.243 205.132L245.101 205.132L244.959 205.132L244.819 205.132L244.678 205.132L244.538 205.132L244.399 205.132L244.26 205.132L244.121 205.132L243.983 205.132L243.846 205.132L243.709 205.132L243.573 205.132L243.437 205.132L243.302 205.132L243.167 205.132L243.033 205.132L242.899 205.132L242.766 205.132L242.634 205.132L242.502 205.132L242.371 205.132L242.24 205.132L242.11 205.132L241.98 205.132L241.851 205.132L241.723 205.132L241.595 205.132L241.467 205.132L241.341 205.132L241.215 205.132L241.089 205.132L240.965 205.132L240.84 205.132L240.717 205.132L240.594 205.132L240.472 205.132L240.35 205.132L240.229 205.132L240.108 205.132L239.989 205.132L239.87 205.132L239.751 205.132L239.633 205.132L239.516 205.132L239.4 205.132L239.284 205.132L239.169 205.132L239.054 205.132L238.941 205.132L238.828 205.132L238.715 205.132L238.603 205.132L238.492 205.132L238.382 205.132L238.273 205.132L238.164 205.132L238.056 205.132L237.948 205.132L237.841 205.132L237.735 205.132L237.63 205.132L237.526 205.132L237.422 205.132L237.319 205.132L237.216 205.132L237.115 205.132L237.014 205.132L236.914 205.132L236.815 205.132L236.716 205.132L236.618 205.132L236.521 205.132L236.425 205.132L236.33 205.132L236.235 205.132L236.141 205.132L236.048 205.132L235.956 205.132L235.865 205.132L235.774 205.132L235.684 205.132L235.595 205.132L235.507 205.132L235.42 205.132L235.333 205.132L235.247 205.132L235.162 205.132L235.078 205.132L234.995 205.132L234.913 205.132L234.831 205.132L234.751 205.132L234.671 205.132L234.592 205.132L234.514 205.132L234.437 205.132L234.36 205.132L234.285 205.132L234.21 205.132L234.137 205.132L234.064 205.132L233.992 205.132L233.921 205.132L233.851 205.132L233.781 205.132L233.713 205.132L233.646 205.132L233.579 205.132L233.514 205.132L233.449 205.132L233.386 205.132L233.323 205.132L233.261 205.132L233.2 205.132L233.14 205.132L233.081 205.132L233.023 205.132L232.966 205.132L232.91 205.132L232.855 205.132L232.801 205.132L232.748 205.132L232.695 205.132L232.644 205.132L232.594 205.132L232.545 205.132L232.496 205.132L232.449 205.132L232.403 205.132L232.358 205.132L232.313 205.132L232.27 205.132L232.228 205.132L232.187 205.132L232.146 205.132L232.107 205.132L232.069 205.132L232.032 205.132L231.996 205.132L231.961 205.132L231.927 205.132L231.894 205.132L231.862 205.132L231.832 205.132L231.802 205.132L231.773 205.132L231.746 205.132L231.719 205.132L231.694 205.132L231.67 205.132L231.646 205.132L231.624 205.132L231.603 205.132L231.583 205.132L231.565 205.132L231.547 205.132L231.53 205.132L231.515 205.132L231.5 205.132L231.487 205.132L231.475 205.132L231.464 205.132L231.454 205.132L231.446 205.132L231.438 205.132L231.432 205.132L231.426 205.132L231.422 205.132L231.419 205.132L231.418 205.132C231.417 205.132 231.417 205.132 231.417 207.132L231.417 205.132L230.415 205.132L229.815 205.935L189.654 259.685L187.265 262.883L191.256 262.883L202.347 262.883C204.81 262.883 206.816 264.88 206.816 267.34C206.816 269.8 204.809 271.798 202.347 271.798L181.603 271.798L180.6 271.798L180 272.601L153.319 308.305L150.929 311.502L154.921 311.502L175.764 311.502C178.231 311.502 180.222 313.493 180.222 315.96C180.222 318.418 178.229 320.418 175.764 320.418L145.267 320.418L144.265 320.418L143.665 321.221L115.759 358.568C115.758 358.57 115.757 358.571 115.756 358.572C114.759 359.897 113.216 360.667 111.586 360.666L111.586 360.666L93.8492 360.666C92.0766 360.666 90.4392 359.775 89.4671 358.283C88.513 356.812 88.3652 354.946 89.0801 353.331C89.0819 353.327 89.0837 353.323 89.0854 353.319L102.995 323.257L104.309 320.417L101.18 320.417L91.4381 320.417C88.9869 320.417 86.9918 318.42 86.9918 315.959C86.9918 313.49 88.9846 311.502 91.4381 311.502L107.162 311.502L108.441 311.502L108.977 310.341L125.486 274.636L126.799 271.797L123.671 271.797L110.435 271.797C107.968 271.797 105.978 269.807 105.978 267.339C105.978 264.872 107.968 262.882 110.435 262.882L129.653 262.882L130.931 262.882L131.468 261.722L158.592 203.106L159.828 200.435L156.89 200.269L66.3176 195.16L66.2613 195.157L66.205 195.157C58.3053 195.157 52.0188 198.236 47.2348 204.991C42.6891 211.407 36.7572 220.204 31.9696 227.384C29.574 230.977 27.4619 234.17 25.9485 236.465C25.1919 237.613 24.5848 238.536 24.1668 239.172C23.9578 239.49 23.7961 239.737 23.6866 239.904L23.562 240.094L23.543 240.123C22.01 242.245 19.2684 243.15 16.7671 242.357C14.2879 241.552 12.6064 239.295 12.5427 236.718L20.0115 191.311L20.3938 188.987L18.038 188.987L10.1537 188.987C6.01717 188.987 2.6665 185.636 2.6665 181.5C2.6665 177.363 6.01717 174.012 10.1537 174.012L18.038 174.012L20.3938 174.012L20.0115 171.688L12.5427 126.281C12.6065 123.699 14.2926 121.437 16.7642 120.643ZM296.932 164.307L294.932 164.307L294.932 166.307L294.932 196.694L294.932 198.694L296.932 198.694C306.42 198.694 314.114 190.985 314.114 181.5C314.114 172.004 306.42 164.307 296.932 164.307Z" stroke="#090E50" stroke-opacity="0.06" stroke-width="4"/>
</svg>
